<svg width="225" height="186" viewBox="0 0 225 186" fill="none" xmlns="http://www.w3.org/2000/svg">
<circle cx="112.399" cy="93.5415" r="44.5151" stroke="white" stroke-width="2"/>
<path d="M126.369 135.452C142.142 93.9924 126.369 51.6318 126.369 51.6318" stroke="white" stroke-width="2"/>
<path d="M155.661 81.374C112.864 63.1229 69.1372 81.374 69.1372 81.374" stroke="white" stroke-width="2"/>
<path d="M99.3303 135.452C83.5578 93.9924 99.3303 51.6318 99.3303 51.6318" stroke="white" stroke-width="2"/>
<path d="M154.76 106.61C112.855 122.834 70.0386 106.61 70.0386 106.61" stroke="white" stroke-width="2"/>
<path d="M148.451 66.9531C113.232 48.702 77.2488 66.9531 77.2488 66.9531" stroke="white" stroke-width="2"/>
<path d="M145.747 122.833C112.312 132.973 78.1501 122.833 78.1501 122.833" stroke="white" stroke-width="2"/>
<path d="M156.562 93.0908L68.6865 93.0908" stroke="white" stroke-width="2"/>
<circle cx="171.884" cy="106.609" r="8.01289" transform="rotate(180 171.884 106.609)" stroke="white" stroke-width="2"/>
<path d="M49.8969 99.0407C49.4501 98.716 48.8247 98.815 48.5 99.2617L43.2089 106.542C42.8842 106.989 42.9831 107.614 43.4299 107.939C43.8766 108.264 44.502 108.165 44.8267 107.718L49.53 101.246L56.0014 105.95C56.4482 106.274 57.0735 106.175 57.3982 105.729C57.7229 105.282 57.624 104.657 57.1772 104.332L49.8969 99.0407ZM168.212 114.189C160.697 143.284 134.066 157.223 107.805 155.092C81.5796 152.964 55.8514 134.799 50.2967 99.6934L48.3213 100.006C54.0326 136.102 80.5792 154.89 107.643 157.085C134.671 159.278 162.342 144.91 170.149 114.689L168.212 114.189Z" fill="white"/>
<circle cx="52.0129" cy="79.6945" r="8.01289" stroke="white" stroke-width="2"/>
<path d="M174 87.263C174.447 87.5877 175.072 87.4887 175.397 87.042L180.688 79.7616C181.013 79.3149 180.914 78.6895 180.467 78.3648C180.021 78.0401 179.395 78.1391 179.07 78.5858L174.367 85.0572L167.896 80.354C167.449 80.0293 166.824 80.1282 166.499 80.575C166.174 81.0217 166.273 81.6471 166.72 81.9718L174 87.263ZM55.685 72.1149C63.2006 43.0195 89.8316 29.0812 116.093 31.2118C142.318 33.3395 168.046 51.5045 173.601 86.6104L175.576 86.2978C169.865 50.2021 143.318 31.4141 116.254 29.2184C89.2266 27.0255 61.5549 41.3934 53.7486 71.6147L55.685 72.1149Z" fill="white"/>
</svg>
