<svg width="225" height="186" viewBox="0 0 225 186" fill="none" xmlns="http://www.w3.org/2000/svg">
<path d="M204 104C204.552 104 205 103.552 205 103C205 102.448 204.552 102 204 102V104ZM189.287 102.537L190.13 102L189.287 102.537ZM182.673 94.7014L181.86 94.1183L182.673 94.7014ZM184.329 94.7474L185.172 94.2105L184.329 94.7474ZM170.219 109.583L171.101 109.111L171.101 109.111L170.219 109.583ZM171.914 109.694L171.101 109.111L171.914 109.694ZM157.524 89.0846L156.653 88.5928L157.524 89.0846ZM159.276 89.1051L160.158 88.6338L160.158 88.6338L159.276 89.1051ZM149.618 100.084L148.773 100.618L149.618 100.084ZM151.335 100.042L152.206 100.534L151.335 100.042ZM122.253 59.4865L121.376 59.0048L122.253 59.4865ZM123.975 59.4346L123.129 59.9682L123.975 59.4346ZM110.056 78.6798L110.876 78.1076L110.056 78.6798ZM111.752 78.5894L112.628 79.0711L111.752 78.5894ZM103.245 71.4928L102.352 71.0413L103.245 71.4928ZM88.6907 96.7287L89.5841 96.2794L88.6907 96.7287ZM90.4764 96.7309L91.3687 97.1823L90.4764 96.7309ZM79.4264 81.9527L78.51 81.5526L79.4264 81.9527ZM81.2363 81.9037L80.3429 82.3529L81.2363 81.9037ZM68.6196 102.62L67.7294 103.076L68.6196 102.62ZM70.4263 102.565L69.5099 102.165L70.4263 102.565ZM63.5946 96.3291L62.6916 95.8994L63.5946 96.3291ZM65.3878 96.3034L66.278 95.8479L65.3878 96.3034ZM53.4082 113.785L54.3454 113.436L53.4082 113.785ZM55.2484 113.866L56.1513 114.295L55.2484 113.866ZM24 104H37.3782V102H24V104ZM39.1072 103.005L44.731 93.3322L43.002 92.3269L37.3782 102L39.1072 103.005ZM44.731 93.3322L52.471 114.133L54.3454 113.436L46.6055 92.6347L44.731 93.3322ZM56.1513 114.295L64.4975 96.7589L62.6916 95.8994L54.3454 113.436L56.1513 114.295ZM64.4975 96.7589L67.7294 103.076L69.5099 102.165L66.278 95.8479L64.4975 96.7589ZM71.3428 102.965L80.3429 82.3529L78.51 81.5526L69.5099 102.165L71.3428 102.965ZM80.3429 82.3529L87.7973 97.1779L89.5841 96.2794L82.1297 81.4544L80.3429 82.3529ZM91.3687 97.1823L104.137 71.9442L102.352 71.0413L89.5841 96.2794L91.3687 97.1823ZM104.137 71.9442L109.236 79.252L110.876 78.1076L105.777 70.7998L104.137 71.9442ZM112.628 79.0711L123.129 59.9682L121.376 59.0048L110.876 78.1076L112.628 79.0711ZM123.129 59.9682L148.773 100.618L150.464 99.5505L124.821 58.9011L123.129 59.9682ZM152.206 100.534L158.394 89.5764L156.653 88.5928L150.464 99.5505L152.206 100.534ZM158.394 89.5764L169.337 110.054L171.101 109.111L160.158 88.6338L158.394 89.5764ZM172.726 110.277L183.485 95.2844L181.86 94.1183L171.101 109.111L172.726 110.277ZM183.485 95.2844L188.443 103.074L190.13 102L185.172 94.2105L183.485 95.2844ZM190.13 104H204V102H190.13V104ZM188.443 103.074C188.81 103.651 189.447 104 190.13 104V102L190.13 102L188.443 103.074ZM183.485 95.2844L183.485 95.2844L185.172 94.2105C184.412 93.0161 182.686 92.968 181.86 94.1183L183.485 95.2844ZM169.337 110.054C170.036 111.361 171.862 111.481 172.726 110.277L171.101 109.111L171.101 109.111L169.337 110.054ZM158.394 89.5764L158.394 89.5764L160.158 88.6338C159.415 87.2425 157.429 87.2193 156.653 88.5928L158.394 89.5764ZM148.773 100.618C149.58 101.898 151.461 101.852 152.206 100.534L150.464 99.5505L150.464 99.5505L148.773 100.618ZM123.129 59.9682L123.129 59.9682L124.821 58.9011C124.008 57.6126 122.11 57.6697 121.376 59.0048L123.129 59.9682ZM109.236 79.252C110.084 80.468 111.914 80.3704 112.628 79.0711L110.876 78.1076L110.876 78.1076L109.236 79.252ZM104.137 71.9442L104.137 71.9442L105.777 70.7998C104.912 69.5592 103.035 69.6915 102.352 71.0413L104.137 71.9442ZM87.7973 97.1779C88.5348 98.6446 90.6276 98.6472 91.3687 97.1823L89.5841 96.2794L89.5841 96.2794L87.7973 97.1779ZM80.3429 82.3529L80.3429 82.3529L82.1297 81.4544C81.3686 79.9408 79.1879 79.9999 78.51 81.5526L80.3429 82.3529ZM67.7294 103.076C68.4981 104.578 70.6674 104.512 71.3428 102.965L69.5099 102.165L69.5099 102.165L67.7294 103.076ZM64.4975 96.7589L64.4975 96.7589L66.278 95.8479C65.5231 94.3723 63.4039 94.4027 62.6916 95.8994L64.4975 96.7589ZM52.471 114.133C53.0873 115.79 55.3918 115.891 56.1513 114.295L54.3454 113.436L54.3454 113.436L52.471 114.133ZM44.731 93.3322L44.731 93.3322L46.6055 92.6347C46.0164 91.0514 43.8511 90.8665 43.002 92.3269L44.731 93.3322ZM37.3782 104C38.0905 104 38.7491 103.621 39.1072 103.005L37.3782 102L37.3782 102V104Z" fill="white"/>
<path d="M119 33L129.743 43.7429" stroke="white" stroke-width="2" stroke-linecap="round"/>
<path d="M119 43.7432L129.743 33.0003" stroke="white" stroke-width="2" stroke-linecap="round"/>
<path d="M91 123L97 129" stroke="white" stroke-width="2" stroke-linecap="round"/>
<path d="M85 129L91 123" stroke="white" stroke-width="2" stroke-linecap="round"/>
<path d="M177 75L182.5 80.5" stroke="white" stroke-width="2" stroke-linecap="round"/>
<path d="M183 81L189 75" stroke="white" stroke-width="2" stroke-linecap="round"/>
</svg>
